# xmcd
#
# Track frame offsets:
#	150
#	18964
#	34304
#	48835
#	67478
#	84762
#	103201
#	121972
#	138264
#
# Disc length: 2028 seconds
#
# Revision: 12
# Processed by: cddbd v1.5.2PL0 Copyright (c) Steve Scherf et al.
# Submitted via: Jack! The Knife 20 Magnifico
#
DISCID=7607ea09
DTITLE=Litfiba - Essere O Sembrare
DYEAR=2005
DGENRE=Rock
TTITLE0=La Tela Del Ragno
TTITLE1=Sette Vite
TTITLE2=Stasera
TTITLE3=Giorni Di Vento
TTITLE4=No Mai
TTITLE5=Alba E Tempesta
TTITLE6=Prendere O Lasciare
TTITLE7=Mistery Train
TTITLE8=Sottile Ramo
EXTD=Ghigo Renzulli
EXTT0=Renzulli, Cavallo, Colzi
EXTT1=Renzulli, Cavallo
EXTT2=Renzulli, Cavallo
EXTT3=Renzulli, Cavallo
EXTT4=Renzulli, Cavallo
EXTT5=Renzulli, Cavallo, Venier
EXTT6=Renzulli, Cavallo
EXTT7=Renzulli, Cavallo
EXTT8=Renzulli, Colzi
PLAYORDER=
